<svg width="26" height="26" viewBox="0 0 26 26" fill="none" xmlns="http://www.w3.org/2000/svg">
<path d="M21.0354 5.104C22.6254 5.104 23.9145 6.38888 23.9221 7.97705C23.9223 7.98618 23.9233 7.99527 23.9231 8.00439V18.4907C23.9231 20.0854 22.6302 21.3784 21.0354 21.3784H6.33524C4.74091 21.3779 3.44852 20.0852 3.44852 18.4907V7.96729C3.44869 7.96141 3.45016 7.95559 3.45047 7.94971C3.47271 6.37445 4.7548 5.10447 6.33524 5.104H21.0354ZM14.1223 14.9468C13.8579 15.1228 13.5127 15.123 13.2483 14.9468L5.02274 9.4624V18.4907C5.02274 19.2153 5.61076 19.8028 6.33524 19.8032H21.0354C21.7603 19.8032 22.3479 19.2156 22.3479 18.4907V9.4624L14.1223 14.9468ZM6.33524 6.67822C5.74412 6.6786 5.24439 7.07025 5.08035 7.60791L13.6848 13.3442L22.2903 7.60791C22.1262 7.07013 21.6268 6.67822 21.0354 6.67822H6.33524Z" fill="#141718"/>
</svg>
