<svg width="26" height="26" viewBox="0 0 26 26" fill="none" xmlns="http://www.w3.org/2000/svg">
<path d="M13.8 10.9003H18.525L18 13.0003H13.8V22.4503H11.7V13.0003H7.5V10.9003H11.7V8.93469C11.7 7.06254 11.8953 6.38319 12.2607 5.69859C12.6188 5.02219 13.1719 4.46905 13.8483 4.11099C14.5329 3.74559 15.2122 3.55029 17.0844 3.55029C17.6325 3.55029 18.1134 3.60279 18.525 3.70779V5.65029H17.0844C15.6942 5.65029 15.271 5.73219 14.8395 5.96319C14.5203 6.13329 14.283 6.37059 14.1129 6.68979C13.8819 7.12134 13.8 7.54449 13.8 8.93469V10.9003Z" fill="white"/>
</svg>
