<svg width="23" height="23" viewBox="0 0 23 23" fill="none" xmlns="http://www.w3.org/2000/svg">
<path fill-rule="evenodd" clip-rule="evenodd" d="M12.102 6.96062C11.7556 7.29305 11.2086 7.29305 10.8622 6.96062L10.2423 6.36576C9.51679 5.6695 8.53663 5.24437 7.45343 5.24437C5.22847 5.24437 3.42479 7.04805 3.42479 9.27301C3.42479 11.4061 4.57947 13.1674 6.24641 14.6146C7.91477 16.063 9.90947 17.0236 11.1013 17.5139C11.3505 17.6164 11.6137 17.6164 11.8629 17.5139C13.0547 17.0236 15.0494 16.063 16.7177 14.6146C18.3847 13.1674 19.5394 11.4061 19.5394 9.27301C19.5394 7.04805 17.7357 5.24437 15.5107 5.24437C14.4275 5.24437 13.4474 5.6695 12.7218 6.36576L12.102 6.96062ZM11.4821 5.07389C10.4365 4.07051 9.01699 3.45386 7.45343 3.45386C4.2396 3.45386 1.63428 6.05918 1.63428 9.27301C1.63428 14.9742 7.87451 18.1226 10.4201 19.1698C11.1057 19.4518 11.8585 19.4518 12.544 19.1698C15.0896 18.1226 21.3299 14.9742 21.3299 9.27301C21.3299 6.05918 18.7246 3.45386 15.5107 3.45386C13.9472 3.45386 12.5276 4.07051 11.4821 5.07389Z" fill="#6C7275"/>
</svg>
