<svg width="26" height="26" viewBox="0 0 26 26" fill="none" xmlns="http://www.w3.org/2000/svg">
<path d="M12.425 9.90279C13.3878 8.91894 14.6415 8.27529 16.1 8.27529C17.6316 8.27529 19.1005 8.88373 20.1835 9.96675C21.2666 11.0498 21.875 12.5187 21.875 14.0503V21.9253H19.775V14.0503C19.775 13.0756 19.3878 12.1409 18.6986 11.4517C18.0094 10.7625 17.0747 10.3753 16.1 10.3753C15.1253 10.3753 14.1906 10.7625 13.5014 11.4517C12.8122 12.1409 12.425 13.0756 12.425 14.0503V21.9253H10.325V8.80029H12.425V9.90279ZM5.075 6.70029C4.65728 6.70029 4.25668 6.53436 3.96131 6.23899C3.66594 5.94362 3.5 5.54301 3.5 5.12529C3.5 4.70758 3.66594 4.30697 3.96131 4.0116C4.25668 3.71623 4.65728 3.55029 5.075 3.55029C5.49272 3.55029 5.89332 3.71623 6.18869 4.0116C6.48406 4.30697 6.65 4.70758 6.65 5.12529C6.65 5.54301 6.48406 5.94362 6.18869 6.23899C5.89332 6.53436 5.49272 6.70029 5.075 6.70029ZM4.025 8.80029H6.125V21.9253H4.025V8.80029Z" fill="white"/>
</svg>
