<svg width="26" height="26" viewBox="0 0 26 26" fill="none" xmlns="http://www.w3.org/2000/svg">
<g clip-path="url(#clip0_5_175)">
<path d="M15.3776 5.06592C16.2982 4.69764 17.3073 4.60877 18.278 4.81104C19.2485 5.01334 20.1378 5.49744 20.8346 6.20264L20.8658 6.23486L20.9098 6.23389C21.2657 6.23138 21.6346 6.27759 22.0729 6.21533C22.4761 6.15804 22.9442 6.0088 23.5612 5.65967C23.2398 7.21928 23.0536 7.9254 22.3522 8.88721L22.3326 8.91553V8.94971C22.3326 12.9388 21.107 15.895 19.2672 17.9771C17.4263 20.0603 14.9635 21.2755 12.4801 21.771C10.7822 22.1096 8.69199 22.0018 6.84631 21.6216C5.92425 21.4316 5.06611 21.174 4.3512 20.8726C3.73898 20.6144 3.23833 20.3247 2.89124 20.0229C3.34386 19.9787 4.13203 19.8814 5.00549 19.6782C6.05532 19.434 7.24003 19.0368 8.11292 18.3979L8.23499 18.3091L8.10901 18.2261C7.38287 17.7474 5.6026 16.6731 4.46838 14.5923C3.35069 12.5417 2.85224 9.49576 4.65979 5.04639C6.40837 7.05993 8.18615 8.44288 9.99475 9.18506C10.6054 9.43554 10.9898 9.56029 11.2936 9.63135C11.5961 9.7021 11.8194 9.71979 12.0924 9.75732L12.402 9.79932L12.2125 9.61084C12.2385 8.63465 12.5462 7.68655 13.1012 6.88232C13.6645 6.06621 14.4569 5.4343 15.3776 5.06592ZM17.2506 6.59619C16.4251 6.59605 15.6317 6.92019 15.0426 7.49854C14.4536 8.07687 14.1153 8.86363 14.1002 9.68896L14.0709 11.3423C14.0695 11.4162 14.0526 11.4893 14.0211 11.5562C13.9895 11.6231 13.9435 11.6828 13.8873 11.731C13.8313 11.779 13.7657 11.8145 13.6949 11.8354C13.6241 11.8564 13.5494 11.8628 13.4762 11.853L11.8365 11.6304C9.70345 11.3395 7.65472 10.3561 5.6842 8.71436L5.54651 8.59912L5.51428 8.77686C5.19743 10.5309 5.34714 12.0245 5.95569 13.3169C6.56394 14.6086 7.62556 15.6885 9.11389 16.6245L10.9479 17.7778C11.0205 17.8235 11.0809 17.8861 11.1237 17.9604C11.1663 18.0346 11.19 18.1181 11.193 18.2036C11.1959 18.2893 11.1778 18.3746 11.1403 18.4517C11.1028 18.5286 11.0473 18.5955 10.9781 18.646L10.9772 18.647L9.30627 19.8677L9.07092 20.0396L9.36096 20.0571C10.2368 20.1117 11.0769 20.0854 11.8053 19.9722L12.11 19.9175C14.608 19.4187 16.6937 18.2286 18.1539 16.3823C19.6138 14.5364 20.442 12.0429 20.442 8.94971C20.442 8.79685 20.3649 8.57428 20.2311 8.33545C20.0948 8.09227 19.8924 7.8188 19.6256 7.56201C19.0916 7.04797 18.2951 6.59629 17.2506 6.59619Z" fill="white" stroke="black" stroke-width="0.21"/>
</g>
<defs>
<clipPath id="clip0_5_175">
<rect width="25.2" height="25.2" fill="white" transform="translate(0.550049 0.399902)"/>
</clipPath>
</defs>
</svg>
