<svg width="66" height="46" viewBox="0 0 66 46" fill="none" xmlns="http://www.w3.org/2000/svg">
<path d="M50.9412 39.7207V23.973C50.9413 22.8774 50.731 21.7933 50.3231 20.7871C49.9152 19.7809 49.3184 18.8739 48.5692 18.1215L34.6117 4.10028C33.9087 3.39385 32.978 3.00023 32.0106 3.00023C31.0432 3.00023 30.1125 3.39385 29.4096 4.10028L15.4521 18.1215C14.7029 18.8739 14.106 19.7809 13.6982 20.7871C13.2903 21.7933 13.08 22.8774 13.0801 23.973V39.7207C13.0801 40.788 13.479 41.8117 14.189 42.5664C14.899 43.3211 15.8621 43.7451 16.8662 43.7451H47.1551C48.1592 43.7451 49.1222 43.3211 49.8323 42.5664C50.5423 41.8117 50.9412 40.788 50.9412 39.7207Z" fill="#1B584C" stroke="#1B584C" stroke-width="4.1125" stroke-linecap="round" stroke-linejoin="round"/>
<path d="M4 36.0514C14.1178 29.2034 24.5084 29.2068 34.7006 32.3055C44.0359 35.1437 52.8671 32.9451 62 23.3297" stroke="#F2994A" stroke-width="6.3" stroke-linecap="round"/>
</svg>
