<svg width="134" height="134" viewBox="0 0 134 134" fill="none" xmlns="http://www.w3.org/2000/svg">
<path d="M108.617 6.42801L105.598 10.5825L103.822 7.29796L102.238 12.6067L99.4067 9.77434V15.6013L100.696 14.3115C101.024 13.9834 101.368 13.6715 101.727 13.3766L102.132 12.971L102.59 12.7234C103.361 12.1847 104.191 11.7361 105.064 11.3865L105.473 11.1659L105.835 11.1083C106.915 10.7621 108.041 10.5826 109.175 10.576C110.289 10.5708 111.378 10.7398 112.403 11.0576L112.738 11.1073L112.928 11.235C114.139 11.6799 115.248 12.3389 116.193 13.179L116.198 13.1712L116.219 13.2016C116.353 13.3214 116.484 13.4442 116.611 13.5711C119.153 16.1129 120.279 20.067 119.189 23.9587L119.172 24.1584L119.197 24.1605L119.024 24.4994C118.66 25.5882 118.118 26.6665 117.381 27.7023L117.38 27.7029L121.106 29.6147L119.355 24.1749L123.343 24.5269L119.643 20.1109L123.565 18.9934L118.684 16.2757L121.905 14.0184L116.292 13.0309L118.411 9.86778L112.859 10.9652L113.456 6.9805L109.201 10.1269L108.616 6.42801H108.617ZM96.4453 12.7354V18.5623L99.359 15.6486L96.4453 12.7354ZM109.244 15.0865C107.659 15.0749 105.878 15.7923 104.028 17.6429L80.3588 41.3112L64.2385 57.4315L72.7517 65.9444L112.54 26.1558C116.241 22.4546 115.409 19.0308 113.28 16.9025C112.216 15.8386 110.829 15.0982 109.244 15.0865ZM93.4845 15.6968V21.5232L96.3974 18.6102L93.4845 15.6968ZM90.5234 18.6576V24.484L93.4363 21.5711L90.5234 18.6576ZM108.69 19.3564C108.99 19.3564 109.288 19.4157 109.566 19.5308C109.843 19.6458 110.096 19.8145 110.308 20.0271C110.521 20.2397 110.689 20.4921 110.804 20.7699C110.919 21.0476 110.978 21.3453 110.978 21.6459C110.978 22.2528 110.737 22.8349 110.308 23.264C109.879 23.6932 109.297 23.9343 108.69 23.9344C108.083 23.9343 107.501 23.6932 107.072 23.264C106.643 22.8349 106.401 22.2528 106.401 21.6459C106.401 21.3453 106.46 21.0477 106.575 20.7699C106.69 20.4922 106.859 20.2399 107.071 20.0273C107.284 19.8147 107.536 19.6461 107.814 19.531C108.092 19.4159 108.389 19.3564 108.69 19.3564ZM87.5621 21.6187V27.4456L90.4758 24.5319L87.5621 21.6187ZM84.6012 24.5795V30.4062L87.5147 27.4932L84.6018 24.5795H84.6012ZM81.6404 27.5406V33.3672L84.5533 30.4543L81.6404 27.5406ZM117.356 27.7369C116.91 28.3598 116.413 28.9449 115.872 29.4865L114.583 30.7749L117.356 33.5481V27.7371L117.356 27.7369ZM48.1247 29.5742L44.0812 31.9898L52.7263 46.4592L52.6619 53.8645H46.5518C47.787 55.5384 48.9877 57.2375 50.153 58.9607L51.7244 56.7605L56.0684 61.1045L57.3639 57.2185L57.343 57.1975L57.4484 45.1781L48.1247 29.5742ZM78.6793 30.5014V36.3283L81.593 33.4146L78.6793 30.5014ZM114.395 30.9631L111.622 33.7357L114.395 36.5092V30.9631ZM75.7188 33.4625V39.2894L77.0279 37.9803L78.6317 36.376L75.7188 33.4625ZM111.434 33.9239L108.661 36.6968L111.434 39.47V33.9242L111.434 33.9239ZM72.7572 36.4233V42.2502L75.6711 39.3365L72.7574 36.4236L72.7572 36.4233ZM108.473 36.885L105.7 39.6582L108.473 42.4311V36.8853V36.885ZM69.7969 39.3844V45.2111L72.7098 42.2981L69.7969 39.3844ZM105.512 39.8464L102.739 42.6185L105.512 45.3917V39.8458V39.8464ZM66.8355 42.345V48.1719L69.7487 45.2592L66.8353 42.3463L66.8355 42.345ZM102.551 42.8067L99.7778 45.5801L102.551 48.353V42.8072V42.8067ZM31.2457 43.0487L28.6552 45.6387C42.0507 59.5355 53.1016 77.1915 59.2684 93.7478L61.5276 91.4884C55.8143 75.1394 44.6687 57.0025 31.2454 43.049L31.2457 43.0487ZM63.8742 45.3066V51.1332L66.7881 48.2198L63.8744 45.3069L63.8742 45.3066ZM99.5899 45.768L96.8164 48.5412L99.5896 51.3146V45.7683L99.5899 45.768ZM60.9131 48.2674V54.0941L63.8265 51.1811L60.9136 48.2672L60.9131 48.2674ZM96.6283 48.7293L93.8556 51.502L96.6283 54.2749V48.7293ZM25.2455 48.8189C23.2852 52.2937 22.877 55.9376 23.7883 59.3258C24.3183 61.2971 25.2188 63.1631 26.3809 64.9386L29.823 61.4963C29.1412 60.3434 28.6343 59.2052 28.3375 58.1023C27.8208 56.1807 27.7889 54.3343 28.5756 52.4125C27.4888 51.1934 26.3786 49.9951 25.2455 48.8189ZM93.6677 51.6899L90.8945 54.4631L93.6677 57.2363V51.6899ZM90.7064 54.6513L87.9332 57.4244L90.7066 60.1968V54.651L90.7064 54.6513ZM87.7458 57.6118L84.9726 60.3847L87.7455 63.1579V57.6121L87.7458 57.6118ZM84.7844 60.5729L82.0113 63.3461L84.7844 66.119V60.5732V60.5729ZM61.0884 60.9425L59.7924 64.8285L66.9452 71.9812L61.7016 79.3224C62.8424 81.7893 63.901 84.2934 64.8755 86.8306C67.9784 82.1427 70.6404 77.1182 72.8409 72.6952L71.0861 70.9404L61.0884 60.9427V60.9425ZM36.2142 61.7674L27.6552 70.3264L27.4196 73.3079L31.8989 73.6036L31.2389 83.5869L26.6318 83.2822L26.4617 85.4336C28.0692 90.4306 30.1912 94.9981 32.7875 98.2151C35.4549 101.52 38.4189 103.38 42.1248 103.484C47.0381 103.622 51.5886 101.385 55.7517 97.7205C54.9848 95.5112 54.1459 93.3274 53.2366 91.1728L50.9801 94.3323L51.045 94.2367C49.6673 96.3802 47.1909 97.4179 44.9705 97.2172C42.7506 97.0165 40.7317 95.9091 39.0127 94.3461C35.5743 91.2194 33.1528 85.8685 34.9849 80.374L35.0966 80.0382L42.0986 70.2343C40.2357 67.3446 38.2728 64.5205 36.2136 61.7671L36.2142 61.7674ZM81.8233 63.534L79.0502 66.3072L81.8233 69.0798V63.534ZM78.8625 66.4948L76.0896 69.268L78.8625 72.0412V66.4953V66.4948ZM55.1351 66.8335C56.6184 69.3472 58.0254 71.9052 59.354 74.5039L60.7922 72.4905L55.1351 66.8335ZM14.4988 71.8279L13.8 83.6513L18.5026 83.9292L18.7128 80.369L26.6994 80.8415L27.01 76.1402L18.991 75.6665L19.2014 72.1055L14.4988 71.8279ZM44.7881 74.5749L39.3914 82.1307C38.4283 85.4378 39.9735 88.8524 42.1821 90.8606C43.3164 91.8917 44.5737 92.4518 45.3955 92.5261C46.2173 92.6005 46.5484 92.5209 47.0826 91.6897L47.114 91.6413L51.0068 86.1915C49.1703 82.3196 47.0849 78.4237 44.7883 74.5751L44.7881 74.5749ZM22.866 89.5072L10.4359 105.045L22.9571 127.583L42.3447 108.195C42.2269 108.194 42.1104 108.196 41.9924 108.193C40.5909 108.154 39.2019 107.918 37.8664 107.491L25.0395 120.318L16.3871 103.76L24.6527 93.8227C23.9963 92.4101 23.4003 90.9702 22.8662 89.507L22.866 89.5072Z" fill="#F2994A"/>
</svg>
